<?xml version="1.0" encoding="utf-8"?>
<!-- Generator: Adobe Illustrator 16.0.0, SVG Export Plug-In . SVG Version: 6.00 Build 0)  -->
<!DOCTYPE svg PUBLIC "-//W3C//DTD SVG 1.0//EN" "http://www.w3.org/TR/2001/REC-SVG-20010904/DTD/svg10.dtd">
<svg version="1.0" id="Layer_1" xmlns="http://www.w3.org/2000/svg" xmlns:xlink="http://www.w3.org/1999/xlink" x="0px" y="0px"
	 width="100px" height="100px" viewBox="0 0 100 100" enable-background="new 0 0 100 100" xml:space="preserve">
<path d="M70,36.191c-1.071,0.28-2.175,0.476-3.333,0.476c-7.36,0-13.334-5.971-13.334-13.334c0-4.609,2.341-8.672,5.896-11.067
	C56.468,10.827,53.333,10,50,10c-11.045,0-20,8.952-20,20v40h15.003L45,84.993c0.003,2.768,2.243,5,5,5.007
	c2.761-0.007,4.99-2.239,5-5.013L54.997,70H70V36.191z M63.333,63.333H36.667V30c0-6.582,4.795-12.067,11.074-13.145
	c-0.703,2.058-1.074,4.238-1.074,6.478c0,9.89,7.22,18.129,16.666,19.721V63.333z"/>
</svg>
